<?xml version="1.0" encoding="UTF-8"?>
<!DOCTYPE svg PUBLIC "-//W3C//DTD SVG 1.1//EN" "http://www.w3.org/Graphics/SVG/1.1/DTD/svg11.dtd">
<svg xmlns="http://www.w3.org/2000/svg" version="1.1" width="847px" height="176px" style="shape-rendering:geometricPrecision; text-rendering:geometricPrecision; image-rendering:optimizeQuality; fill-rule:evenodd; clip-rule:evenodd" xmlns:xlink="http://www.w3.org/1999/xlink">
<g><path style="opacity:1" fill="#fefefe" d="M -0.5,-0.5 C 281.833,-0.5 564.167,-0.5 846.5,-0.5C 846.5,58.1667 846.5,116.833 846.5,175.5C 564.167,175.5 281.833,175.5 -0.5,175.5C -0.5,116.833 -0.5,58.1667 -0.5,-0.5 Z"/></g>
<g><path style="opacity:1" fill="#316b04" d="M 44.5,7.5 C 52.1955,7.16917 59.8622,7.50251 67.5,8.5C 81.745,46.9843 95.4117,85.651 108.5,124.5C 101.833,124.5 95.1667,124.5 88.5,124.5C 86.1356,116.574 83.4689,108.74 80.5,101C 64.1667,100.333 47.8333,100.333 31.5,101C 28.74,108.445 26.0733,115.945 23.5,123.5C 16.8665,124.497 10.1998,124.83 3.5,124.5C 16.9657,85.4364 30.6324,46.4364 44.5,7.5 Z"/></g>
<g><path style="opacity:1" fill="#207dc7" d="M 487.5,97.5 C 487.783,98.2891 488.283,98.9558 489,99.5C 489.5,68.8351 489.667,38.1685 489.5,7.5C 494.5,7.5 499.5,7.5 504.5,7.5C 504.5,46.5 504.5,85.5 504.5,124.5C 499.489,124.666 494.489,124.499 489.5,124C 468.961,93.7573 448.794,63.2573 429,32.5C 428.5,63.1649 428.333,93.8315 428.5,124.5C 423.167,124.5 417.833,124.5 412.5,124.5C 412.5,85.5 412.5,46.5 412.5,7.5C 417.844,7.33398 423.177,7.50065 428.5,8C 448.389,37.7156 468.056,67.5489 487.5,97.5 Z"/></g>
<g><path style="opacity:1" fill="#dceaf6" d="M 489.5,7.5 C 489.667,38.1685 489.5,68.8351 489,99.5C 488.283,98.9558 487.783,98.2891 487.5,97.5C 488.167,67.5 488.833,37.5 489.5,7.5 Z"/></g>
<g><path style="opacity:1" fill="#316b04" d="M 215.5,31.5 C 215.793,66.8508 215.46,102.184 214.5,137.5C 209.677,156.151 197.677,166.985 178.5,170C 164.062,171.723 150.729,168.723 138.5,161C 130.897,154.959 126.563,147.125 125.5,137.5C 131.868,137.17 138.202,137.504 144.5,138.5C 151.713,150.602 162.379,155.435 176.5,153C 187.448,150.386 193.948,143.552 196,132.5C 196.667,125.167 196.667,117.833 196,110.5C 182.284,125.615 165.784,129.449 146.5,122C 129.604,111.888 120.937,96.8879 120.5,77C 123.189,43.6422 141.189,28.3088 174.5,31C 183.19,33.0941 190.357,37.5941 196,44.5C 196.499,40.1794 196.666,35.8461 196.5,31.5C 202.833,31.5 209.167,31.5 215.5,31.5 Z"/></g>
<g><path style="opacity:1" fill="#336d07" d="M 278.5,30.5 C 281.5,30.5 284.5,30.5 287.5,30.5C 287.5,36.8333 287.5,43.1667 287.5,49.5C 280.278,48.5942 273.611,50.0942 267.5,54C 265.044,56.4075 263.211,59.2409 262,62.5C 260.535,83.0996 260.035,103.766 260.5,124.5C 253.833,124.5 247.167,124.5 240.5,124.5C 240.5,93.5 240.5,62.5 240.5,31.5C 247.167,31.5 253.833,31.5 260.5,31.5C 260.334,35.5138 260.501,39.5138 261,43.5C 265.581,37.4103 271.415,33.077 278.5,30.5 Z"/></g>
<g><path style="opacity:1" fill="#316c04" d="M 335.5,30.5 C 355.465,27.5961 371.965,33.5961 385,48.5C 395.461,66.4356 396.128,84.7689 387,103.5C 376.86,117.906 362.86,125.239 345,125.5C 319.651,123.818 304.651,110.484 300,85.5C 297.236,57.4805 309.069,39.1472 335.5,30.5 Z"/></g>
<g><path style="opacity:1" fill="#247ec8" d="M 559.5,110.5 C 562.526,112.019 565.859,112.685 569.5,112.5C 572.025,112.497 574.359,112.163 576.5,111.5C 586.235,110.262 592.901,105.096 596.5,96C 601.823,95.5006 607.156,95.334 612.5,95.5C 607.808,112.209 596.808,122.042 579.5,125C 552.233,128.129 534.733,116.629 527,90.5C 521.769,68.5362 527.936,50.7029 545.5,37C 557.468,30.4279 570.135,28.7612 583.5,32C 598.238,36.4046 608.072,45.9046 613,60.5C 614.223,68.4529 614.723,76.4529 614.5,84.5C 590.167,84.5 565.833,84.5 541.5,84.5C 541.669,97.3165 547.669,105.983 559.5,110.5 Z"/></g>
<g><path style="opacity:1" fill="#237ec8" d="M 794.5,30.5 C 806.818,28.8623 818.152,31.3623 828.5,38C 835.482,43.467 838.482,50.6337 837.5,59.5C 832.5,59.5 827.5,59.5 822.5,59.5C 821.898,50.7289 817.232,45.5622 808.5,44C 800.91,42.3606 794.077,43.8606 788,48.5C 784.205,54.9699 785.038,60.8032 790.5,66C 801.601,70.6101 812.934,74.6101 824.5,78C 839.218,85.8064 842.718,97.3064 835,112.5C 824.811,123.181 812.311,127.348 797.5,125C 783.619,123.432 774.119,116.265 769,103.5C 768.503,101.19 768.337,98.8568 768.5,96.5C 773.511,96.3341 778.511,96.5007 783.5,97C 789.325,111.071 799.659,115.738 814.5,111C 825.343,105.858 827.009,98.8576 819.5,90C 809.26,86.38 798.926,83.0467 788.5,80C 770.336,72.5219 765.502,60.0219 774,42.5C 779.773,36.5355 786.607,32.5355 794.5,30.5 Z"/></g>
<g><path style="opacity:1" fill="#f7f9f6" d="M 55.5,31.5 C 62.9915,48.9683 69.3248,66.9683 74.5,85.5C 62.1667,85.5 49.8333,85.5 37.5,85.5C 43.2928,67.455 49.2928,49.455 55.5,31.5 Z"/></g>
<g><path style="opacity:1" fill="#82a666" d="M 215.5,31.5 C 216.664,64.9975 216.831,98.6642 216,132.5C 215.802,134.382 215.302,136.048 214.5,137.5C 215.46,102.184 215.793,66.8508 215.5,31.5 Z"/></g>
<g><path style="opacity:1" fill="#257fc8" d="M 624.5,32.5 C 630.303,31.9132 635.803,32.5798 641,34.5C 647.515,58.8935 654.181,83.2268 661,107.5C 669.314,82.7824 676.814,57.7824 683.5,32.5C 689.093,32.1934 694.593,32.5268 700,33.5C 706.832,58.3368 714.165,83.0035 722,107.5C 729.121,83.3551 735.788,59.0218 742,34.5C 746.858,32.5859 752.025,31.9193 757.5,32.5C 747.974,63.08 738.641,93.7467 729.5,124.5C 724.125,124.828 718.792,124.495 713.5,123.5C 706.47,100.039 699.137,76.7061 691.5,53.5C 683.365,76.9057 676.032,100.572 669.5,124.5C 663.697,125.087 658.197,124.42 653,122.5C 643.793,92.3793 634.293,62.3793 624.5,32.5 Z"/></g>
<g><path style="opacity:1" fill="#fcfdfe" d="M 563.5,43.5 C 579.206,41.7672 590.706,47.7672 598,61.5C 598.826,64.7928 599.326,68.1262 599.5,71.5C 580.167,71.5 560.833,71.5 541.5,71.5C 542.509,57.1619 549.842,47.8286 563.5,43.5 Z"/></g>
<g><path style="opacity:1" fill="#fdfdfc" d="M 162.5,46.5 C 178.427,45.2005 189.26,51.8672 195,66.5C 198.789,80.5815 195.622,92.7481 185.5,103C 171.427,111.597 158.594,110.097 147,98.5C 140.569,88.2813 138.902,77.2813 142,65.5C 145.841,55.8217 152.674,49.4884 162.5,46.5 Z"/></g>
<g><path style="opacity:1" fill="#fcfdfb" d="M 340.5,46.5 C 356.847,45.0842 367.681,52.0842 373,67.5C 376.248,81.187 373.082,93.0204 363.5,103C 351.829,110.245 340.162,110.245 328.5,103C 317.457,89.7314 315.623,75.2314 323,59.5C 327.38,53.0747 333.213,48.7414 340.5,46.5 Z"/></g>
<g><path style="opacity:1" fill="#a1c8e7" d="M 559.5,110.5 C 565.13,111.292 570.797,111.625 576.5,111.5C 574.359,112.163 572.025,112.497 569.5,112.5C 565.859,112.685 562.526,112.019 559.5,110.5 Z"/></g>
</svg>
